 <svg xmlns="http://www.w3.org/2000/svg" xmlns:xlink="http://www.w3.org/1999/xlink" version="1.1" viewBox="286.45 -0.5 1171.44 936.76"><g transform="matrix(1,0,0,1,-0.9090909090909918,0.3785425101214628)"><svg xmlns="http://www.w3.org/2000/svg" xmlns:xlink="http://www.w3.org/1999/xlink" viewBox="0 0 396 247" data-background-color="#810404" preserveAspectRatio="xMidYMid meet" height="935" width="1500"><g id="tight-bounds" transform="matrix(1,0,0,1,0.2400000000000091,-0.09999999999999432)"><svg viewBox="0 0 395.52 247.2" height="247.2" width="395.52"><g><svg/></g><g><svg viewBox="0 0 395.52 247.2" height="247.2" width="395.52"><g transform="matrix(1,0,0,1,75.54432,47.215199999999996)"><svg viewBox="0 0 244.43135999999998 152.7696" height="152.7696" width="244.43135999999998"><g><svg viewBox="0 0 244.43135999999998 152.7696" height="152.7696" width="244.43135999999998"><g><svg viewBox="0 0 244.43135999999998 152.7696" height="152.7696" width="244.43135999999998"><g><svg viewBox="0 0 244.43135999999998 152.7696" height="152.7696" width="244.43135999999998"><g id="textblocktransform"><svg viewBox="0 0 244.43135999999998 152.7696" height="152.7696" width="244.43135999999998" id="textblock"><g><svg viewBox="0 0 244.43135999999998 152.7696" height="152.7696" width="244.43135999999998"><g transform="matrix(1,0,0,1,0,0)"><svg width="244.43135999999998" viewBox="0.45 -27 58.4 36.5" height="152.7696" data-palette-color="#ff908b"><path d="M26.5-23.75L17.75 0.5 12.1 0.5 3.25-23.75 0.45-24.7 0.45-27 12.15-27 12.15-24.7 8.85-23.75 15.55-3.7 15.75-3.7 22.5-23.75 19.4-24.7 19.4-27 29.4-27 29.4-24.7 26.5-23.75ZM58.85-24.7L55.8-23.75 47.6-1.2Q46.1 2.65 44.87 5.03 43.65 7.4 42.17 8.45 40.7 9.5 38.4 9.5L38.4 9.5Q36.05 9.5 34.37 8.25 32.7 7 32.7 5.1L32.7 5.1Q32.7 3.6 33.57 2.6 34.45 1.6 35.85 1.6L35.85 1.6Q37.1 1.6 37.8 2.23 38.5 2.85 38.5 4.05L38.5 4.05Q38.5 4.65 38.15 5.38 37.8 6.1 37.1 6.45L37.1 6.45Q37.2 6.95 37.7 7.13 38.2 7.3 38.55 7.3L38.55 7.3Q39.25 7.3 39.85 6.98 40.45 6.65 41.12 5.58 41.8 4.5 42.6 2.2L42.6 2.2 43.2 0.35 32.95-23.75 29.95-24.7 29.95-27 41.65-27 42.05-24.7 38.5-23.75 45.5-4.9 45.7-4.9 51.75-23.75 48.85-24.7 48.85-27 58.85-27 58.85-24.7Z" opacity="1" transform="matrix(1,0,0,1,0,0)" fill="#ff908b" class="wordmark-text-0" data-fill-palette-color="primary" id="text-0"/></svg></g></svg></g></svg></g></svg></g></svg></g></svg></g></svg></g>

 <path d="M137.674 65 L137.674 0 L384.874 0 L384.874 247.2 L137.674 247.2 L137.674 190"
        fill="none" stroke="#ff908b" stroke-width="20"
        stroke-dasharray="247.2" stroke-dashoffset="988.8"          
 >
    <animate attributeName="stroke-dashoffset" from="988.8" to="0" dur="3s" begin="0s" repeatCount="indefinite" />
  </path>
 </svg></g><defs/></svg>
 </g></svg></g></svg>